<svg width="26" height="21"><path fill="currentColor" fill-rule="evenodd" d="M20.252 15.515c-1.702 0-3.127-1.006-3.583-2.37h7.166c-.456 1.364-1.881 2.37-3.583 2.37m3.658-3.87h-7.315c.42-1.605 2.207-4.727 3.657-6.993 1.45 2.265 3.237 5.387 3.658 6.993m-18.66 3.87c-1.702 0-3.127-1.006-3.583-2.37h7.166c-.456 1.364-1.881 2.37-3.583 2.37m0-10.863c1.45 2.265 3.237 5.387 3.658 6.993H1.593C2.013 10.04 3.8 6.918 5.25 4.652m15.625-1.787c-.148-.221-.41-.317-.666-.303-.051-.011-.098-.03-.151-.03h-6.561V.75a.75.75 0 0 0-1.5 0v1.782H5.438c-.053 0-.099.019-.148.03-.256-.013-.516.083-.663.303C4.153 3.57 0 9.839 0 12.228c0 2.64 2.356 4.787 5.25 4.787 2.808 0 5.089-2.025 5.225-4.556.002-.022.012-.042.012-.064 0-.007-.004-.012-.004-.02.002-.05.017-.096.017-.147 0-1.868-2.534-6.1-3.868-8.196h5.365v14.506h-2.75a.75.75 0 0 0 0 1.5h7a.75.75 0 0 0 0-1.5h-2.75V4.032h5.373c-1.334 2.097-3.868 6.328-3.868 8.196 0 2.64 2.355 4.787 5.25 4.787s5.25-2.147 5.25-4.787c0-2.39-4.153-8.657-4.627-9.363"></path></svg>
