<svg width="16px" height="14px" viewBox="0 0 16 14" version="1.1"><g id="Catalog_filters_shell" stroke="none" stroke-width="1" fill="currentColor" fill-rule="evenodd"><g id="Catalog_filters" transform="translate(-927.000000, -476.000000)" fill="#787878"><g id="Catalog_filters_icon" transform="translate(927.000000, 476.000000)"><path d="M1.0001,3 L2.2791,3 C2.6271,3.594 3.2661,4 4.0001,4 C4.7351,4 5.3731,3.594 5.7211,3 L15.0001,3 C15.5501,3 16.0001,2.55 16.0001,2 C16.0001,1.45 15.5501,1 15.0001,1 L5.7211,1 C5.3731,0.406 4.7351,0 4.0001,0 C3.2661,0 2.6271,0.406 2.2791,1 L1.0001,1 C0.4501,1 0.0001,1.45 0.0001,2 C0.0001,2.55 0.4501,3 1.0001,3" id="Fill-1"></path><path d="M15.0001,6 L13.7211,6 C13.3731,5.406 12.7351,5 12.0001,5 C11.2661,5 10.6271,5.406 10.2791,6 L1.0001,6 C0.4501,6 0.0001,6.45 0.0001,7 C0.0001,7.55 0.4501,8 1.0001,8 L10.2791,8 C10.6271,8.594 11.2661,9 12.0001,9 C12.7351,9 13.3731,8.594 13.7211,8 L15.0001,8 C15.5501,8 16.0001,7.55 16.0001,7 C16.0001,6.45 15.5501,6 15.0001,6" id="Fill-4"></path><path d="M15.0001,11 L7.7211,11 C7.3731,10.406 6.7351,10 6.0001,10 C5.2661,10 4.6271,10.406 4.2791,11 L1.0001,11 C0.4501,11 0.0001,11.45 0.0001,12 C0.0001,12.55 0.4501,13 1.0001,13 L4.2791,13 C4.6271,13.594 5.2661,14 6.0001,14 C6.7351,14 7.3731,13.594 7.7211,13 L15.0001,13 C15.5501,13 16.0001,12.55 16.0001,12 C16.0001,11.45 15.5501,11 15.0001,11" id="Fill-7"></path></g></g></g></svg>
