<svg viewBox="0 0 25 30"><linearGradient id="prefix__a" gradientUnits="userSpaceOnUse" x1="8.931" y1="41.254" x2="8.931" y2="24.499" gradientTransform="rotate(-.653 -1144.505 -269.963)"><stop offset="0" stop-color="#ffda4f"/><stop offset=".351" stop-color="#ffcb27"/><stop offset=".539" stop-color="#ffc210"/><stop offset="1" stop-color="#efa20a"/></linearGradient><path fill="url(#prefix__a)" d="M22.275 26.861a1.1 1.1 0 01-1.078 1.122l-17.587.2a1.1 1.1 0 01-1.104-1.097l-.165-14.534a1.1 1.1 0 011.078-1.122l17.587-.2a1.1 1.1 0 011.104 1.097l.165 14.534z"/><linearGradient id="prefix__b" gradientUnits="userSpaceOnUse" x1="9.2" y1="32.745" x2="9.2" y2="28.197" gradientTransform="rotate(-.653 -1144.505 -269.963)"><stop offset=".255" stop-color="#ffc210" stop-opacity="0"/><stop offset=".477" stop-color="#fdbf12" stop-opacity=".298"/><stop offset=".664" stop-color="#f5b419" stop-opacity=".548"/><stop offset=".837" stop-color="#e8a324" stop-opacity=".781"/><stop offset="1" stop-color="#d68b34"/></linearGradient><path fill="url(#prefix__b)" d="M22.806 19.455l-20.461.233-.052-4.547 20.461-.233z"/><path fill="#DFDFDF" d="M21.713 6.962L3.62 7.168c-.598.007-2.542 1.159-2.535 1.756l.003.263.038 3.346.01.857c.007.597.707 1.188 1.304 1.181l20.621-.235c.597-.007.817-.608.81-1.205l-.01-.857-.038-3.346-.003-.262c-.007-.598-1.51-1.711-2.107-1.704z"/><linearGradient id="prefix__c" gradientUnits="userSpaceOnUse" x1="9.2" y1="28.198" x2="9.2" y2="20.808" gradientTransform="rotate(-.653 -1144.505 -269.963)"><stop offset="0" stop-color="#efa20a"/><stop offset=".005" stop-color="#f0a60e"/><stop offset=".042" stop-color="#f8c22b"/><stop offset=".074" stop-color="#fdd33d"/><stop offset=".097" stop-color="#ffd943"/><stop offset=".153" stop-color="#ffcf2d"/><stop offset=".221" stop-color="#ffc518"/><stop offset=".265" stop-color="#ffc210"/><stop offset=".628" stop-color="#ffc210"/><stop offset=".806" stop-color="#ffe6a8"/><stop offset=".811" stop-color="#fee19c"/><stop offset=".83" stop-color="#fad075"/><stop offset=".85" stop-color="#f7c254"/><stop offset=".872" stop-color="#f4b639"/><stop offset=".895" stop-color="#f2ad24"/><stop offset=".921" stop-color="#f0a715"/><stop offset=".952" stop-color="#efa30d"/><stop offset="1" stop-color="#efa20a"/></linearGradient><path fill="url(#prefix__c)" d="M21.385 7.534L3.291 7.74c-.597.007-2.209.922-2.202 1.519l.003.263.038 3.346.01.857c.007.597.374 1.425.972 1.418l20.621-.235c.597-.007 1.149-.845 1.143-1.442l-.01-.857-.038-3.346L23.825 9c-.008-.597-1.843-1.473-2.44-1.466z"/><linearGradient id="prefix__d" gradientUnits="userSpaceOnUse" x1="9.855" y1="28.197" x2="9.855" y2="41.271" gradientTransform="rotate(-.653 -1144.505 -269.963)"><stop offset="0" stop-color="#e59a34" stop-opacity=".7"/><stop offset="1" stop-color="#d68b34" stop-opacity=".1"/></linearGradient><path fill="url(#prefix__d)" d="M10.399 28.123l5.187-.059.522-13.08-5.858.067z"/><linearGradient id="prefix__e" gradientUnits="userSpaceOnUse" x1="-.955" y1="34.533" x2="3.066" y2="34.533" gradientTransform="rotate(-.653 -1144.505 -269.963)"><stop offset=".041" stop-color="#ffe065"/><stop offset=".06" stop-color="#ffde60" stop-opacity=".969"/><stop offset=".216" stop-color="#ffd23d" stop-opacity=".72"/><stop offset=".364" stop-color="#ffc924" stop-opacity=".485"/><stop offset=".498" stop-color="#ffc415" stop-opacity=".271"/><stop offset=".607" stop-color="#ffc210" stop-opacity=".097"/><stop offset=".627" stop-color="#f8c327" stop-opacity=".092"/><stop offset=".67" stop-color="#ecc452" stop-opacity=".082"/><stop offset=".716" stop-color="#e1c676" stop-opacity=".07"/><stop offset=".763" stop-color="#d8c794" stop-opacity=".059"/><stop offset=".812" stop-color="#d2c8ac" stop-opacity=".046"/><stop offset=".865" stop-color="#cdc9bc" stop-opacity=".033"/><stop offset=".924" stop-color="#cac9c6" stop-opacity=".019"/><stop offset="1" stop-color="#c9c9c9" stop-opacity="0"/></linearGradient><path fill="url(#prefix__e)" d="M6.527 27.098c.005.478-.089.866-.212.868l-2.739.031c-.123.001-1.064-.375-1.069-.853l-.129-11.337c-.005-.478.089-.866.212-.868l3.577-.041c.123-.001.226.385.232.863l.128 11.337z"/><linearGradient id="prefix__f" gradientUnits="userSpaceOnUse" x1="-452.284" y1="34.579" x2="-446.587" y2="34.579" gradientTransform="scale(-1 1) rotate(.653 902.396 37750.82)"><stop offset="0" stop-color="#ececed" stop-opacity=".104"/><stop offset=".141" stop-color="#f8f8f9" stop-opacity=".243"/><stop offset=".199" stop-color="#fff" stop-opacity=".3"/><stop offset="1" stop-color="#e3e3e3" stop-opacity="0"/></linearGradient><path fill="url(#prefix__f)" d="M16.576 26.737c.005.429.15.775.323.773l5.067-.058c.174-.002.31-.351.306-.78l-.116-10.174c-.005-.429-.15-.775-.323-.773l-5.067.058c-.174.002-.31.351-.305.78l.115 10.174z"/><linearGradient id="prefix__g" gradientUnits="userSpaceOnUse" x1="-455.272" y1="38.617" x2="-463.456" y2="33.892" gradientTransform="scale(-1 1) rotate(.653 890.44 39856.012)"><stop offset=".01" stop-color="#fff" stop-opacity=".3"/><stop offset=".416" stop-color="#f2f2f2" stop-opacity=".177"/><stop offset="1" stop-color="#e3e3e3" stop-opacity="0"/></linearGradient><path fill="url(#prefix__g)" fill-opacity=".5" d="M2.513 27.701c.004.355.148.642.322.64l5.07-.058c.174-.002.311-.292.307-.647l-.096-8.43c-.004-.355-.148-.642-.322-.64l-5.07.058c-.174.002-.311.292-.307.647l.096 8.43z"/><linearGradient id="prefix__h" gradientUnits="userSpaceOnUse" x1="9.408" y1="-931.14" x2="9.408" y2="-935.664" gradientTransform="scale(1 -1) rotate(.653 -79597.727 -204.482)"><stop offset=".255" stop-color="#ffc210" stop-opacity="0"/><stop offset=".662" stop-color="#eaa822" stop-opacity=".273"/><stop offset="1" stop-color="#d68f34" stop-opacity=".5"/></linearGradient><path fill="url(#prefix__h)" d="M21.904 23.732c-.002-.165-.467-.294-1.039-.288l-16.692.19c-.572.006-1.034.146-1.033.311l.045 3.924c.002.165.467.294 1.039.288l16.692-.19c.572-.007 1.034-.146 1.032-.311l-.044-3.924z"/><linearGradient id="prefix__i" gradientUnits="userSpaceOnUse" x1="8.931" y1="20.291" x2="8.931" y2="41.958" gradientTransform="rotate(-.653 -1144.505 -269.963)"><stop offset="0" stop-color="#803b36"/><stop offset=".034" stop-color="#c0343a"/><stop offset=".066" stop-color="#ff2e3d"/><stop offset=".068" stop-color="#ff3e46"/><stop offset=".073" stop-color="#ff5c58"/><stop offset=".078" stop-color="#ff7667"/><stop offset=".083" stop-color="#ff8972"/><stop offset=".09" stop-color="#ff977a"/><stop offset=".098" stop-color="#ff9f7f"/><stop offset=".112" stop-color="#ffa180"/><stop offset=".133" stop-color="#f5836f"/><stop offset=".163" stop-color="#e95c58"/><stop offset=".195" stop-color="#de3c46"/><stop offset=".228" stop-color="#d62338"/><stop offset=".262" stop-color="#d0122e"/><stop offset=".299" stop-color="#cd0728"/><stop offset=".342" stop-color="#cc0426"/><stop offset=".483" stop-color="#d00929"/><stop offset=".641" stop-color="#da1633"/><stop offset=".806" stop-color="#eb2c44"/><stop offset=".903" stop-color="#f83d50"/><stop offset="1" stop-color="#b5382e"/></linearGradient><path fill="url(#prefix__i)" d="M14.911 27.588c.007.625-.255 1.174-.88 1.181h-3.316c-.625.007-.823-.499-.83-1.124L9.664 8.288a1.14 1.14 0 011.124-1.15l2.752-.031a1.14 1.14 0 011.15 1.124l.221 19.357z"/><g opacity=".8"><linearGradient id="prefix__j" gradientUnits="userSpaceOnUse" x1="8.81" y1="28.168" x2="8.81" y2="5.968" gradientTransform="matrix(.9999 -.0114 .0119 1.0426 3.28 .716)"><stop offset="0" stop-color="#fffff4" stop-opacity="0"/><stop offset=".009" stop-color="#fffeeb" stop-opacity=".021"/><stop offset=".066" stop-color="#fff8b6" stop-opacity=".164"/><stop offset=".124" stop-color="#fff287" stop-opacity=".309"/><stop offset=".182" stop-color="#ffee61" stop-opacity=".452"/><stop offset=".239" stop-color="#ffea44" stop-opacity=".594"/><stop offset=".295" stop-color="#ffe82f" stop-opacity=".733"/><stop offset=".351" stop-color="#ffe622" stop-opacity=".87"/><stop offset=".403" stop-color="#ffe61e"/><stop offset=".461" stop-color="#ffe725" stop-opacity=".902"/><stop offset=".543" stop-color="#ffe937" stop-opacity=".765"/><stop offset=".639" stop-color="#ffec55" stop-opacity=".604"/><stop offset=".746" stop-color="#fff17f" stop-opacity=".425"/><stop offset=".862" stop-color="#fff7b5" stop-opacity=".232"/><stop offset=".983" stop-color="#fffef5" stop-opacity=".029"/><stop offset="1" stop-color="#fff" stop-opacity="0"/></linearGradient><path fill="url(#prefix__j)" d="M13.801 29.969L11.048 30c-.783.009-1.428-.648-1.438-1.465L9.381 8.352c-.009-.817.621-1.489 1.404-1.498l2.753-.031c.783-.009 1.429.648 1.438 1.465l.23 20.183c.008.817-.622 1.489-1.405 1.498zM10.792 7.447c-.47.005-.848.408-.842.899l.23 20.183c.006.49.393.885.863.879l2.753-.031c.47-.005.848-.408.842-.899l-.23-20.183c-.006-.49-.393-.885-.863-.879l-2.753.031z"/></g><linearGradient id="prefix__k" gradientUnits="userSpaceOnUse" x1="-43.09" y1="-112.568" x2="-37.136" y2="-109.103" gradientTransform="matrix(.9954 -.0958 .1069 1.1113 69 123.954)"><stop offset=".01" stop-color="#740e00"/><stop offset=".068" stop-color="#841507"/><stop offset=".18" stop-color="#ac2719"/><stop offset=".291" stop-color="#da3b2d"/><stop offset=".292" stop-color="#d93b2d"/><stop offset=".331" stop-color="#c3322d"/><stop offset=".373" stop-color="#b32c2d"/><stop offset=".421" stop-color="#a9282d"/><stop offset=".485" stop-color="#a6272d"/><stop offset=".598" stop-color="#b22229"/><stop offset=".77" stop-color="#bf1c24"/><stop offset=".859" stop-color="#a11b18"/><stop offset=".94" stop-color="#8d1a0f"/><stop offset=".995" stop-color="#861a0c"/></linearGradient><path fill="url(#prefix__k)" d="M12.681 6.569c2.256-3.066 5.082-7.78 8.385-4.64.344.326-.229 3.186-.229 3.186s-.525-4.958-7.167 1.17c-1.329 1.226-1.374.806-.989.284z"/><linearGradient id="prefix__l" gradientUnits="userSpaceOnUse" x1="-45.889" y1="-111.84" x2="-36.586" y2="-109.214" gradientTransform="matrix(.9954 -.0958 .1069 1.1113 69 123.954)"><stop offset=".01" stop-color="#550e00"/><stop offset=".393" stop-color="#ff3b2d"/><stop offset=".426" stop-color="#ef332d"/><stop offset=".472" stop-color="#e02c2d"/><stop offset=".527" stop-color="#d7282d"/><stop offset=".607" stop-color="#d4272d"/><stop offset=".704" stop-color="#e24947"/><stop offset=".888" stop-color="#ff9280"/><stop offset=".912" stop-color="#fb7d70"/><stop offset=".963" stop-color="#f14846"/><stop offset="1" stop-color="#e91c24"/></linearGradient><path fill="url(#prefix__l)" d="M10.837 7.528c3.14-1.862 4.144.609 7.415.099 1.727-.269 2.304-.671 2.68-2.377.269-1.217.532-2.102.35-2.658 0 0-.595 1.949-3.384 2.596-1.873.434-2.172.504-4.941.771-1.731.166-2.12 1.569-2.12 1.569z"/><linearGradient id="prefix__m" gradientUnits="userSpaceOnUse" x1="58.284" y1="-120.819" x2="52.4" y2="-110.626" gradientTransform="rotate(7.52 -888.077 -349.253)"><stop offset="0" stop-color="#a72f00" stop-opacity="0"/><stop offset="1" stop-color="#8e2800"/></linearGradient><path fill="url(#prefix__m)" d="M10.374 8.132l.189-.681c.018-.065.463-1.593 2.367-1.776 2.742-.264 3.028-.33 4.887-.76 2.598-.602 3.171-2.334 3.194-2.407l.266-.844.276.839c.177.541.012 1.257-.216 2.247l-.127.56c-.415 1.884-1.125 2.317-2.914 2.597a5.856 5.856 0 01-1.686.025c-.649-.086-1.198-.265-1.728-.44-.464-.152-.902-.296-1.358-.357-.831-.11-1.615.087-2.542.636l-.608.361zm10.613-4.457c-.507.641-1.424 1.419-3.024 1.79-1.866.433-2.199.51-4.979.777-.646.062-1.08.313-1.366.583a3.886 3.886 0 011.98-.252c.509.067.971.219 1.461.38.505.166 1.028.338 1.625.416.502.066 1 .059 1.524-.023 1.606-.251 2.091-.547 2.447-2.158l.128-.565c.08-.348.153-.666.204-.948z"/><radialGradient id="prefix__n" cx="146.162" cy="-130.801" r="3.53" gradientTransform="matrix(.3841 1.0189 -2.552 1.8084 -381.368 92.305)" gradientUnits="userSpaceOnUse"><stop offset="0" stop-color="#f83d50"/><stop offset=".097" stop-color="#e92e45"/><stop offset=".282" stop-color="#c10728"/><stop offset=".296" stop-color="#be0426"/><stop offset=".381" stop-color="#bc0727"/><stop offset=".453" stop-color="#b61229"/><stop offset=".52" stop-color="#ad232d"/><stop offset=".561" stop-color="#a53231"/><stop offset=".679" stop-color="#aa3134"/><stop offset=".806" stop-color="#b72e3d"/><stop offset=".913" stop-color="#b62d3b"/><stop offset=".951" stop-color="#b12b34"/><stop offset=".978" stop-color="#a92629"/><stop offset="1" stop-color="#9e2018"/></radialGradient><path fill="url(#prefix__n)" d="M5.33 1.666S8.2.96 10.205 4.783c2.006 3.823 1.908 3.186 1.908 3.186l-.835-.629S5.622 1.751 4.884 4.051c-.739 2.301-.326-.5-.326-.5l.772-1.885z"/><radialGradient id="prefix__o" cx="145.683" cy="-130.168" r="4.222" gradientTransform="matrix(.5301 .8945 -2.8586 2.8857 -441.349 250.637)" gradientUnits="userSpaceOnUse"><stop offset=".036" stop-color="#f83d50"/><stop offset=".09" stop-color="#eb2c44"/><stop offset=".181" stop-color="#da1633"/><stop offset=".269" stop-color="#d00929"/><stop offset=".347" stop-color="#cc0426"/><stop offset=".405" stop-color="#cd0728"/><stop offset=".454" stop-color="#d1122f"/><stop offset=".5" stop-color="#d7233a"/><stop offset=".544" stop-color="#e03c4a"/><stop offset=".587" stop-color="#ec5c5e"/><stop offset=".628" stop-color="#f98376"/><stop offset=".643" stop-color="#ff9280"/><stop offset=".701" stop-color="#ff907e"/><stop offset=".732" stop-color="#ff8879"/><stop offset=".757" stop-color="#ff7a70"/><stop offset=".779" stop-color="#ff6763"/><stop offset=".798" stop-color="#ff4e52"/><stop offset=".816" stop-color="#ff2f3e"/><stop offset=".816" stop-color="#ff2e3d"/><stop offset=".926" stop-color="#fd2e3d"/><stop offset=".966" stop-color="#f62f3d"/><stop offset=".994" stop-color="#eb313d"/><stop offset="1" stop-color="#e7323d"/></radialGradient><path fill="url(#prefix__o)" d="M5.33 1.666s-1.928 4.623 5.497 4.843c4.402.13-.059.635-.059.635s-5.53 1.835-7.129-.198c-.524-.667-.797-1.024-.741-1.652.066-.729 2.432-3.628 2.432-3.628z"/><linearGradient id="prefix__p" gradientUnits="userSpaceOnUse" x1="41.069" y1="45.922" x2="46.214" y2="54.833" gradientTransform="matrix(.8872 -.025 -.0041 .949 -31.328 -41.65)"><stop offset="0" stop-color="#a72f00" stop-opacity="0"/><stop offset="1" stop-color="#8e2800"/></linearGradient><path fill="url(#prefix__p)" d="M6.521 8.187c-1.49.017-2.535-.341-3.105-1.066-.523-.665-.868-1.104-.801-1.852.07-.776 2.09-3.287 2.495-3.782L6.323 0l-.73 1.775c-.006.014-.567 1.412.208 2.606.744 1.147 2.438 1.767 5.035 1.843 2.019.06 2.204.176 2.217.492.01.242.019.452-2.223.707-.28.09-2.357.742-4.309.764zM4.822 2.768c-.806 1.054-1.61 2.214-1.641 2.552-.045.498.14.761.681 1.449.456.579 1.348.864 2.653.85 1.963-.022 4.143-.737 4.165-.745l.057-.012c.147-.017.3-.036.452-.056-.114-.004-.237-.009-.37-.012C8.02 6.71 6.17 6 5.32 4.684c-.425-.659-.521-1.35-.498-1.916z"/><g><linearGradient id="prefix__q" gradientUnits="userSpaceOnUse" x1="8.931" y1="20.944" x2="8.931" y2="17.566" gradientTransform="rotate(-.653 -1144.505 -269.963)"><stop offset=".01" stop-color="#550e00"/><stop offset=".403" stop-color="#ff3b2d"/><stop offset=".434" stop-color="#ed362d"/><stop offset=".483" stop-color="#d82f2d"/><stop offset=".537" stop-color="#c92b2d"/><stop offset=".6" stop-color="#c0282d"/><stop offset=".694" stop-color="#bd272d"/><stop offset=".714" stop-color="#bf2a2f"/><stop offset=".727" stop-color="#c43236"/><stop offset=".738" stop-color="#cd4141"/><stop offset=".748" stop-color="#da5652"/><stop offset=".757" stop-color="#eb7166"/><stop offset=".765" stop-color="#ff9280"/><stop offset=".795" stop-color="#f97267"/><stop offset=".83" stop-color="#f3534f"/><stop offset=".868" stop-color="#ef3b3c"/><stop offset=".907" stop-color="#ec2a2f"/><stop offset=".949" stop-color="#ea1f27"/><stop offset="1" stop-color="#e91c24"/></linearGradient><path fill="url(#prefix__q)" d="M14.339 6.799c.007.625-.44 1.046-.995.935-.554-.111-1.51-.105-2.124.014l-.109.021c-.614.119-1.122-.295-1.129-.92l-.011-1.092c-.007-.625.044-1.21.113-1.298.069-.089.532-.022 1.027.149.495.171 1.36.161 1.922-.022.562-.183 1.08-.261 1.151-.173.071.087.136.67.143 1.296l.012 1.09z"/><linearGradient id="prefix__r" gradientUnits="userSpaceOnUse" x1="6.553" y1="20.497" x2="11.373" y2="17.714" gradientTransform="rotate(-.653 -1144.505 -269.963)"><stop offset="0" stop-color="#a72f00" stop-opacity="0"/><stop offset="1" stop-color="#8e2800"/></linearGradient><path fill="url(#prefix__r)" d="M10.919 8.073a1.191 1.191 0 01-.863-.342 1.249 1.249 0 01-.357-.88L9.686 5.76c-.004-.372.005-1.259.174-1.477.114-.146.308-.148.371-.149.231-.003.595.073.972.203.416.143 1.261.133 1.741-.024.421-.136.821-.22 1.071-.223.116-.001.283.012.388.14.168.205.202 1.01.207 1.472l.012 1.092c.009.789-.612 1.361-1.335 1.217-.498-.1-1.46-.094-2.013.015l-.108.021a1.33 1.33 0 01-.247.026zm-.62-3.368c-.017.154-.05.533-.044 1.048l.012 1.092a.68.68 0 00.189.484.652.652 0 00.601.161l.108-.021c.629-.122 1.662-.128 2.234-.014.376.078.66-.215.655-.653l-.012-1.092a7.28 7.28 0 00-.076-1.044 3.904 3.904 0 00-.846.189c-.6.194-1.566.205-2.102.02a3.26 3.26 0 00-.719-.17z"/></g></svg>
