<svg viewBox="0 0 16 17"><path d="M8.8 0c-.3 0-.6.1-.9.4-1 1-.7 2.6-1.3 3.3-.4.4-.7.8-1.1 1.3-.3.4-1 1.3-1.4 1.6H1.3C.6 6.5 0 7.1 0 7.8v6.5c0 .7.6 1.3 1.3 1.3h2.9c.3 0 1.1.3 1.4.4 1.4.6 2.8 1 4.2 1h1.4c1.9 0 3.2-1.1 3.2-3.1.4-.5.6-1.2.6-1.8v-.4c.3-.5.4-1 .4-1.5 0-.2 0-.5-.1-.7.3-.5.5-1.1.5-1.7 0-1.4-1.2-2.6-2.6-2.6h-1.8c.3-.6.5-1.2.5-2 0-.7 0-1.3-.4-1.9C10.9.4 9.9 0 8.8 0m.4 2c.2 0 .4.1.4.2.1.2.1.4.1 1 0 .3-.1.7-.3 1.1-.2.7-.2 1.4.2 2 .4.6 1 .9 1.7.9h1.8c.3 0 .6.3.6.6 0 .2-.1.4-.2.6-.3.5-.4 1.1-.3 1.6v.2c0 .2 0 .3-.1.5-.2.4-.3.8-.2 1.3v.2c0 .2-.1.4-.2.6-.3.4-.4.8-.4 1.3 0 .3-.1.6-.2.8-.2.2-.5.3-1 .3H9.7c-1.1 0-2.3-.4-3.5-.8h-.1c-.9-.3-1.4-.5-1.9-.5H2V8.5h2.1c.4 0 .8-.1 1.1-.3.5-.4 1.1-1 1.8-2v-.1c.4-.5.7-.9 1-1.2.7-.7.8-1.6 1-2.3.1-.1.1-.4.2-.6" fill="currentColor"></path><path d="M8.8 1.1L8 3l-.8 1.8-1.5 1.8-1.9 1H1.3v6.5l3.7.4 3.2 1.1 3.7.3 1.3-1.4.4-2.2.6-2.4.2-2.5-.5-.8-3.4-.3h-.6l.8-1.6.4-2.2-.8-.9-1-.5z" fill="inherit"></path></svg>
