<svg class="FiveStarRate_star_1-eP" width="18" height="18" viewBox="0 0 18 18"><path d="M9 0c-.346 0-.693.18-.872.542L6.1 4.652c-.14.286-.416.486-.733.53l-4.534.66C.036 5.96-.283 6.938.295 7.5l3.28 3.198c.23.223.334.545.28.862l-.774 4.516c-.107.627.392 1.138.96 1.138.148 0 .303-.036.452-.113l4.056-2.132c.142-.074.297-.112.452-.112.154 0 .31.038.45.112l4.06 2.133c.146.078.3.114.45.114.567 0 1.066-.51.96-1.138l-.776-4.516c-.054-.317.05-.64.28-.862l3.28-3.2c.578-.56.26-1.54-.538-1.656l-4.534-.66c-.317-.044-.59-.244-.733-.53L9.87.542c-.177-.36-.523-.54-.87-.54m0 2.84l1.285 2.605c.405.818 1.186 1.386 2.088 1.516l2.874.42-2.08 2.028c-.652.636-.95 1.554-.796 2.454l.492 2.864-2.572-1.352c-.396-.21-.842-.32-1.29-.32-.45 0-.895.11-1.29.32l-2.57 1.352.49-2.864c.153-.9-.144-1.818-.797-2.453l-2.08-2.028 2.873-.42c.904-.13 1.685-.697 2.088-1.515L9 2.843" fill="currentColor" fill-rule="evenodd"></path></svg>
